<?xml version="1.0" encoding="UTF-8"?>
<svg version="1.1" xmlns="http://www.w3.org/2000/svg" viewBox="0 580 1500 320">
<path d="M0 0 C11.33559175 -0.04641249 22.67116076 -0.08191449 34.00682831 -0.10362434 C39.27086248 -0.11404582 44.53483146 -0.12817516 49.79882812 -0.15087891 C54.88221372 -0.17266559 59.96553676 -0.18458093 65.04896545 -0.18975449 C66.98495976 -0.19343979 68.92095078 -0.20063621 70.85691833 -0.21146011 C73.57591051 -0.22605244 76.29464662 -0.22797471 79.01367188 -0.22705078 C80.20482605 -0.23783661 80.20482605 -0.23783661 81.42004395 -0.24884033 C93.2301116 -0.20563045 103.84731591 4.12598776 112.48046875 12.21484375 C117.13778129 17.36315979 121.10069352 23.03377226 125.14453125 28.66796875 C129.23490347 34.36470302 133.48254256 39.9352818 137.75 45.5 C139.09961026 47.25991693 140.44861655 49.02029725 141.796875 50.78125 C142.36760742 51.52439453 142.93833984 52.26753906 143.52636719 53.03320312 C144.7377877 54.65003607 145.87932871 56.31899306 147 58 C150.35927769 56.88024077 150.80914756 56.26397398 152.79296875 53.484375 C153.3331665 52.73760498 153.87336426 51.99083496 154.42993164 51.22143555 C155.0099292 50.40586182 155.58992676 49.59028809 156.1875 48.75 C157.43851442 47.02098406 158.69118412 45.29316484 159.9453125 43.56640625 C160.60305664 42.65906738 161.26080078 41.75172852 161.93847656 40.81689453 C165.41909071 36.06093456 168.98788151 31.37299737 172.5625 26.6875 C173.22854248 25.81125977 173.89458496 24.93501953 174.58081055 24.03222656 C184.57003042 10.93984291 184.57003042 10.93984291 189.5625 7.375 C190.30628906 6.82585938 191.05007812 6.27671875 191.81640625 5.7109375 C204.123431 -0.90314451 215.74461848 -0.53018182 229.390625 -0.390625 C231.54823275 -0.38315231 233.70584735 -0.37746424 235.86346436 -0.37347412 C241.5056679 -0.35829879 247.14745085 -0.31908765 252.78948975 -0.2746582 C258.56142489 -0.23352972 264.33342888 -0.21542575 270.10546875 -0.1953125 C281.40382928 -0.15258486 292.70187948 -0.08443292 304 0 C302.23943391 2.95906205 300.47693779 5.82040109 298.3984375 8.56640625 C297.91342773 9.20989014 297.42841797 9.85337402 296.92871094 10.51635742 C296.41598633 11.19158447 295.90326172 11.86681152 295.375 12.5625 C294.28381426 14.00778237 293.19266867 15.45309505 292.1015625 16.8984375 C291.56821289 17.60323242 291.03486328 18.30802734 290.48535156 19.03417969 C288.56345335 21.57775701 286.65691416 24.13267678 284.75 26.6875 C281.97805565 30.3867675 279.18622931 34.06968739 276.37890625 37.7421875 C269.26593768 47.04730689 262.21120184 56.3852919 255.2902832 65.83422852 C250.26778088 72.67496611 245.1243091 79.41935391 239.96533203 86.1574707 C234.95267382 92.71681932 230.04383875 99.34589475 225.17700195 106.01391602 C220.39324535 112.53934828 215.42768461 118.91378925 210.35302734 125.21557617 C209.79695801 125.91658447 209.24088867 126.61759277 208.66796875 127.33984375 C208.17578857 127.95206787 207.6836084 128.56429199 207.17651367 129.19506836 C205.84322063 131.24052083 205.18133268 132.5549336 205 135 C206.11510815 137.1892891 206.11510815 137.1892891 207.91015625 139.31640625 C208.56330811 140.15333008 209.21645996 140.99025391 209.8894043 141.85253906 C210.60652588 142.74682617 211.32364746 143.64111328 212.0625 144.5625 C213.55089991 146.46373236 215.03785166 148.36609922 216.5234375 150.26953125 C217.65410645 151.7093335 217.65410645 151.7093335 218.80761719 153.17822266 C222.01704181 157.30901661 225.10604669 161.52337937 228.1875 165.75 C233.12524411 172.49147669 238.14683479 179.1606735 243.23803711 185.78686523 C249.63125348 194.11025663 255.90835045 202.52011221 262.1875 210.9296875 C266.30107794 216.43003983 270.44954094 221.90148571 274.62084961 227.3581543 C282.86845811 238.15068346 291.00830563 249.01640674 299 260 C299.7437085 261.01755371 299.7437085 261.01755371 300.50244141 262.05566406 C304 266.88182874 304 266.88182874 304 268 C279.52071732 268.09367483 255.04146173 268.16409229 230.56203556 268.20724869 C219.19437205 268.22782458 207.82682028 268.25584957 196.45922852 268.30175781 C186.54474016 268.34177839 176.63033278 268.3674689 166.71576589 268.37635398 C161.47195398 268.38154306 156.2283736 268.39363435 150.98463631 268.42292023 C146.0360407 268.45033047 141.08776917 268.45839394 136.13910484 268.45243073 C134.33532568 268.45351963 132.53153422 268.46131946 130.72782135 268.4768219 C104.20334902 268.69336243 81.0668 260.58141186 61.6875 242.1875 C43.8880639 223.45432299 35.66604251 200.42346906 35.74462891 174.90258789 C35.74187371 173.40173656 35.73819061 171.90088669 35.73365784 170.40003967 C35.7255911 167.18625476 35.72336588 163.97253922 35.72560501 160.75874519 C35.72845603 155.66791813 35.71402019 150.57722782 35.69662476 145.48643494 C35.6497664 131.0164493 35.62566129 116.54647425 35.61914062 102.07641602 C35.61538089 94.07065135 35.5972826 86.0650429 35.56404626 78.05934519 C35.54392612 73.00774048 35.54141509 67.95654121 35.55232644 62.90491307 C35.55494833 59.75220206 35.54085865 56.59972337 35.52224541 53.44707298 C35.5169596 51.99555436 35.51835774 50.54399197 35.52728081 49.09249115 C35.61060433 34.33807284 31.76838109 23.31316948 21.875 12.3125 C15.87361902 6.56507501 7.8103764 3.47193191 0 1 C0 0.67 0 0.34 0 0 Z " fill="#0086FE" transform="translate(38,616)"/>
<path d="M0 0 C1.41345703 0.57621094 1.41345703 0.57621094 2.85546875 1.1640625 C19.12863743 8.58159985 30.94157235 23.04051245 37.35546875 39.47265625 C41.10661946 51.05111784 41.139764 62.36438654 41.09765625 74.41015625 C41.09578796 75.9891302 41.094366 77.56810473 41.09336853 79.14707947 C41.0895757 83.27503092 41.07977353 87.40294641 41.06866455 91.53088379 C41.05656784 96.49867764 41.05203278 101.46648361 41.04621124 106.43428802 C41.03655964 113.95621692 41.01738059 121.47806713 41 129 C29.78 129 18.56 129 7 129 C6.01 125.04 5.02 121.08 4 117 C0.58274543 110.32082062 -2.72249292 105.17630408 -9 101 C-9.60972656 100.5875 -10.21945312 100.175 -10.84765625 99.75 C-18.08095475 95.7361465 -26.97946023 95.79463398 -35 97 C-43.59815741 99.55438533 -50.03899546 104.5644703 -55 112 C-58.00444826 117.72859814 -59.07362655 122.51538582 -60 129 C-71.22 129 -82.44 129 -94 129 C-94.16043524 110.92429659 -94.16043524 110.92429659 -94.1953125 103.12109375 C-94.21907187 97.8307253 -94.24694145 92.54063803 -94.30175781 87.25048828 C-94.3457487 82.97752334 -94.36924721 78.7048606 -94.37950897 74.4316864 C-94.3868062 72.81486769 -94.40105048 71.19806239 -94.42292023 69.58137512 C-94.68158086 49.63692536 -90.38337447 30.8801871 -76.18261719 16.05688477 C-55.56079369 -4.61050021 -27.18166645 -11.14355975 0 0 Z " fill="#202020" transform="translate(676,621)"/>
<path d="M0 0 C2.50978275 2.19558094 4.85689461 4.47556728 7.18359375 6.86328125 C7.8796875 7.52714844 8.57578125 8.19101562 9.29296875 8.875 C13.64993418 13.30795901 16.66635602 18.12829539 19.49609375 23.61328125 C19.82174316 24.23211182 20.14739258 24.85094238 20.48291016 25.48852539 C26.31600032 37.42618859 26.60504439 49.78757637 26.4765625 62.7578125 C26.47095272 64.4431673 26.46668918 66.12852706 26.46369934 67.81388855 C26.45235913 72.20494595 26.4229881 76.59569571 26.3895874 80.9866333 C26.3531909 86.27902115 26.3396737 91.57151306 26.32222748 96.86399078 C26.2933419 104.86396686 26.23578034 112.86327073 26.18359375 120.86328125 C14.96359375 120.86328125 3.74359375 120.86328125 -7.81640625 120.86328125 C-8.80640625 115.41828125 -8.80640625 115.41828125 -9.81640625 109.86328125 C-14.39992646 100.20072513 -20.59391363 93.77672679 -30.5859375 89.74609375 C-38.42411921 87.60409971 -47.95342354 87.44093083 -55.37890625 90.98828125 C-56.887091 91.90026566 -58.36963172 92.8567127 -59.81640625 93.86328125 C-60.45964844 94.27449219 -61.10289062 94.68570313 -61.765625 95.109375 C-67.41031045 99.23575026 -70.52225069 105.37343851 -72.81640625 111.86328125 C-73.14640625 114.83328125 -73.47640625 117.80328125 -73.81640625 120.86328125 C-85.03640625 120.86328125 -96.25640625 120.86328125 -107.81640625 120.86328125 C-107.93673268 101.87844483 -107.93673268 101.87844483 -107.96289062 93.72265625 C-107.9807537 88.17959874 -108.00177782 82.63669133 -108.04272461 77.09375 C-108.07556377 72.61981827 -108.0933105 68.14604775 -108.10103798 63.6720047 C-108.10653777 61.973752 -108.11727619 60.2755071 -108.13359642 58.57732391 C-108.32335335 37.99479597 -103.44322709 21.05357512 -88.81640625 5.86328125 C-64.79734162 -17.26481344 -26.91656808 -20.42075276 0 0 Z " fill="#1F1F1F" transform="translate(991.81640625,629.13671875)"/>
<path d="M0 0 C12.29615948 10.65179937 21.91510438 26.27539359 23.29187775 42.7464447 C23.54094299 48.15717239 23.47000454 53.56984958 23.41796875 58.984375 C23.41236089 60.71599965 23.40809643 62.44762911 23.40510559 64.17926025 C23.39375038 68.69691531 23.3643656 73.21427264 23.33099365 77.73181152 C23.2946388 83.17352142 23.28108713 88.61533187 23.26363373 94.05712891 C23.23472097 102.28829185 23.17716955 110.51880388 23.125 118.75 C11.905 118.75 0.685 118.75 -10.875 118.75 C-11.865 112.81 -11.865 112.81 -12.875 106.75 C-17.16120952 97.86395586 -22.75588341 91.54898547 -32.0625 87.8125 C-40.978376 85.29856649 -51.55048539 85.47524925 -59.875 89.75 C-68.0652812 94.66416872 -73.51755383 101.43171617 -75.875 110.75 C-76.37 114.71 -76.37 114.71 -76.875 118.75 C-88.095 118.75 -99.315 118.75 -110.875 118.75 C-110.95521762 100.76342728 -110.95521762 100.76342728 -110.97265625 93.03125 C-110.98456081 87.77795312 -110.99856569 82.52472669 -111.02587891 77.27148438 C-111.04778584 73.03098026 -111.05960583 68.79055181 -111.06475449 64.54999542 C-111.06841848 62.94107118 -111.07557223 61.33215055 -111.08646011 59.72325897 C-111.22796748 37.92399062 -106.87210659 19.67445869 -91.3125 3.5625 C-66.10276248 -21.49462162 -27.32377192 -20.95965768 0 0 Z " fill="#1F1F1F" transform="translate(1446.875,631.25)"/>
<path d="M0 0 C14.06022642 10.87640581 23.35772968 25.81960526 26.32493591 43.39125061 C26.78539688 47.21531766 26.89745165 50.88531427 26.89086914 54.73608398 C26.89101517 55.45887039 26.89116119 56.1816568 26.89131165 56.92634583 C26.89062074 59.29077261 26.88286727 61.6551184 26.875 64.01953125 C26.87313289 65.66862444 26.87171037 67.31771819 26.87071228 68.96681213 C26.86691015 73.28878331 26.85709972 77.61072042 26.8460083 81.93267822 C26.8339371 87.12819464 26.82938096 92.32372251 26.82355499 97.51924896 C26.81388658 105.39566877 26.79471396 113.27201396 26.77734375 121.1484375 C15.55734375 121.1484375 4.33734375 121.1484375 -7.22265625 121.1484375 C-8.21265625 116.6934375 -8.21265625 116.6934375 -9.22265625 112.1484375 C-11.51314543 103.66015405 -16.50802203 97.52574759 -23.66015625 92.40234375 C-31.52127659 88.1721982 -40.5200585 87.73465808 -49.22265625 89.1484375 C-59.07278125 92.16154582 -65.60506425 98.13134429 -70.53515625 107.0234375 C-72.72053249 111.99318556 -72.72053249 111.99318556 -74.22265625 121.1484375 C-85.11265625 121.1484375 -96.00265625 121.1484375 -107.22265625 121.1484375 C-107.34298268 102.49338462 -107.34298268 102.49338462 -107.36914062 94.4609375 C-107.38698316 89.00804746 -107.40795039 83.55531042 -107.44897461 78.10253906 C-107.4818857 73.69992028 -107.49957522 69.29746586 -107.50728798 64.89473343 C-107.51277513 63.22604413 -107.52348772 61.55736249 -107.53984642 59.88874435 C-107.73989616 38.61159474 -103.24631944 21.53512963 -87.98046875 5.84375 C-63.5724815 -17.31654461 -27.34714238 -19.3334594 0 0 Z " fill="#1F1F1F" transform="translate(1142.22265625,628.8515625)"/>
<path d="M0 0 C11.22 0 22.44 0 34 0 C34.33 25.41 34.66 50.82 35 77 C44.48050187 64.37494492 44.48050187 64.37494492 53.875 51.6875 C54.4532251 50.90173584 55.0314502 50.11597168 55.62719727 49.30639648 C58.00041886 46.08126564 60.37194263 42.85489009 62.74267578 39.62792969 C70.17464728 29.51306472 77.64900561 19.43274853 85.20288086 9.40844727 C86.10018921 8.21626587 86.10018921 8.21626587 87.015625 7 C87.54446289 6.29875 88.07330078 5.5975 88.61816406 4.875 C89.79148795 3.28292801 90.90295752 1.64556372 92 0 C93.83499146 -0.36076355 93.83499146 -0.36076355 96.08251953 -0.34057617 C97.34360031 -0.34023628 97.34360031 -0.34023628 98.63015747 -0.33988953 C99.53853363 -0.32440567 100.44690979 -0.30892181 101.3828125 -0.29296875 C102.31221649 -0.28872391 103.24162048 -0.28447906 104.19918823 -0.28010559 C107.17475056 -0.26328012 110.14964156 -0.22562103 113.125 -0.1875 C115.13931315 -0.17245816 117.15363689 -0.15876888 119.16796875 -0.14648438 C124.11223879 -0.11336394 129.05600549 -0.06155529 134 0 C132.66537532 2.72110121 131.26690454 5.1685726 129.48828125 7.625 C128.98562744 8.32101318 128.48297363 9.01702637 127.96508789 9.73413086 C127.41973389 10.48186768 126.87437988 11.22960449 126.3125 12 C125.73943115 12.78963135 125.1663623 13.5792627 124.57592773 14.39282227 C119.67651986 21.12116622 114.69123378 27.78387824 109.68359375 34.43188477 C104.59364658 41.19147687 99.56533796 47.99469922 94.56665039 54.82202148 C91.78534502 58.61305534 88.97612614 62.35768504 86 66 C87.34716818 68.86253357 88.87773056 71.34286804 90.765625 73.87890625 C91.31855225 74.62519287 91.87147949 75.37147949 92.44116211 76.14038086 C93.03807861 76.93968018 93.63499512 77.73897949 94.25 78.5625 C95.52745562 80.28377115 96.80479624 82.00512765 98.08203125 83.7265625 C98.73510254 84.60473633 99.38817383 85.48291016 100.06103516 86.38769531 C102.46074956 89.62075299 104.8446892 92.86521463 107.22802734 96.11035156 C113.43554496 104.56080257 119.7027662 112.96443495 126.02709961 121.32788086 C126.61885986 122.11300049 127.21062012 122.89812012 127.8203125 123.70703125 C128.59785889 124.73534058 128.59785889 124.73534058 129.39111328 125.78442383 C131.34198169 128.47093837 133.17248161 131.22850321 135 134 C98.0756342 136.98870047 98.0756342 136.98870047 88.79882812 132.42529297 C84.16744507 128.37722968 81.70250556 123.29296612 79.28808594 117.71728516 C77.05128709 112.99864013 73.86955842 108.97668506 70.75 104.8125 C70.19844238 104.02891113 69.64688477 103.24532227 69.07861328 102.43798828 C68.57313965 101.72239746 68.06766602 101.00680664 67.546875 100.26953125 C66.87930176 99.31977417 66.87930176 99.31977417 66.19824219 98.35083008 C65.80282227 97.90505615 65.40740234 97.45928223 65 97 C64.34 97 63.68 97 63 97 C61.71543565 98.39703022 61.71543565 98.39703022 60.453125 100.26953125 C59.9470874 100.98512207 59.4410498 101.70071289 58.91967773 102.43798828 C58.36868408 103.22157715 57.81769043 104.00516602 57.25 104.8125 C56.65840088 105.60897949 56.06680176 106.40545898 55.45727539 107.22607422 C52.31590069 111.49248779 49.5964732 115.64913109 47.29296875 120.42578125 C44.4375 125.625 44.4375 125.625 36 134 C24.12 134 12.24 134 0 134 C0 89.78 0 45.56 0 0 Z " fill="#202020" transform="translate(431,616)"/>
<path d="M0 0 C11.85714159 -0.04524033 23.71422555 -0.08191021 35.57143402 -0.10362434 C41.0776033 -0.11404765 46.58371031 -0.12818037 52.08984375 -0.15087891 C57.40664784 -0.17265901 62.72339215 -0.18457956 68.04023743 -0.18975449 C70.06554607 -0.19344096 72.09085155 -0.20063969 74.11613464 -0.21146011 C76.95965569 -0.22604365 79.80293176 -0.22797507 82.64648438 -0.22705078 C83.47799011 -0.23424133 84.30949585 -0.24143188 85.16619873 -0.24884033 C97.96276529 -0.20402822 111.00988902 5.15469541 120.265625 14.07421875 C129.75850615 24.61473768 134.4113989 35.51506711 134.5 49.6875 C134.50636475 50.55415283 134.51272949 51.42080566 134.51928711 52.3137207 C134.23742282 66.66428972 127.65280336 78.64089395 118 89 C118.60328125 89.83402344 119.2065625 90.66804687 119.828125 91.52734375 C124.28089924 97.76215728 128.39862972 103.73455675 131 111 C131.29648438 111.76441406 131.59296875 112.52882813 131.8984375 113.31640625 C134.51218854 120.78597917 134 125.38408157 134 134 C123.11 134 112.22 134 101 134 C100.01 130.04 99.02 126.08 98 122 C94.58274543 115.32082062 91.27750708 110.17630408 85 106 C84.39027344 105.5875 83.78054688 105.175 83.15234375 104.75 C75.91904525 100.7361465 67.02053977 100.79463398 59 102 C50.40184259 104.55438533 43.96100454 109.5644703 39 117 C35.99555174 122.72859814 34.92637345 127.51538582 34 134 C22.78 134 11.56 134 0 134 C0 116.87280548 5.66124258 101.91358484 17 89 C17.58265625 88.32324219 18.1653125 87.64648438 18.765625 86.94921875 C29.25786659 75.59731871 44.929106 67.71957126 60.42382812 66.79589844 C64.99867674 66.66914836 69.57264469 66.58620704 74.14892578 66.54370117 C84.51946791 66.60394074 84.51946791 66.60394074 94 63 C96.35647001 60.65920243 96.35647001 60.65920243 98 58 C98.4125 57.38125 98.825 56.7625 99.25 56.125 C101.22118009 50.53998975 99.91300703 46.03238422 97.55859375 40.89453125 C94.81764469 37.56280119 91.17203435 35.39779134 86.93853951 34.62245941 C84.62956094 34.47119998 82.34930043 34.43967894 80.03540039 34.45410156 C78.73176544 34.43859505 78.73176544 34.43859505 77.40179443 34.42277527 C74.55022359 34.39345098 71.69936573 34.3918503 68.84765625 34.390625 C66.86224523 34.37563635 64.87684664 34.35890776 62.89146423 34.34051514 C57.68174655 34.29690646 52.47219706 34.27685683 47.2623291 34.26177979 C41.93975913 34.24218539 36.61737018 34.20021795 31.29492188 34.16015625 C20.86330653 34.08492407 10.43182229 34.03665944 0 34 C0 22.78 0 11.56 0 0 Z " fill="#202020" transform="translate(1185,616)"/>
<path d="M0 0 C11.22 0 22.44 0 34 0 C34.05607422 4.17462891 34.05607422 4.17462891 34.11328125 8.43359375 C34.15960441 11.15429159 34.21079866 13.87485771 34.26245117 16.59545898 C34.29553184 18.47395704 34.32361527 20.35255046 34.34643555 22.23120117 C34.38029386 24.94490889 34.43262215 27.65775576 34.48828125 30.37109375 C34.49467117 31.19959335 34.5010611 32.02809296 34.50764465 32.88169861 C34.75440171 42.85649635 37.86753464 50.920762 45 58 C53.84979604 64.55332998 62.01693749 67.06024613 73 66 C82.30582581 64.0237628 89.07845321 59.33443621 94.69067383 51.70019531 C100.47281207 41.70177884 99.89394449 31.50302681 99.875 20.25 C99.89315736 18.2812235 99.91396949 16.31246961 99.9375 14.34375 C99.99385644 9.56150348 99.99573646 4.78369723 100 0 C111.22 0 122.44 0 134 0 C134.09276078 5.6893278 134.17210782 11.37594281 134.21972656 17.06542969 C134.23961428 18.9932554 134.26673439 20.92102267 134.30175781 22.84863281 C134.71058816 45.95957193 130.43156301 64.87058579 113.98046875 82.1171875 C106.58433917 89.1702684 94.49097883 98 84 98 C84 109.88 84 121.76 84 134 C72.78 134 61.56 134 50 134 C50 122.12 50 110.24 50 98 C47.69 97.67 45.38 97.34 43 97 C26.0305597 89.798946 12.53158701 77.24149649 4.95019531 60.41137695 C-0.30273349 47.08065295 -0.49983833 34.72668317 -0.25 20.5625 C-0.2298849 18.55926284 -0.21164307 16.55600596 -0.1953125 14.55273438 C-0.1551983 9.70092165 -0.07684514 4.85191699 0 0 Z " fill="#1F1F1F" transform="translate(733,616)"/>
<path d="M0 0 C6.27 0 12.54 0 19 0 C19 28.71 19 57.42 19 87 C13.06 87 7.12 87 1 87 C0.67 86.01 0.34 85.02 0 84 C-1.546875 84.99 -1.546875 84.99 -3.125 86 C-9.88521729 89.34415004 -17.72246635 89.25946378 -24.87890625 87.15234375 C-32.85966828 83.55795474 -38.05168318 77.89714438 -41.4375 69.875 C-43.98697582 61.92858188 -44.56872488 52.9869499 -41.4375 45.125 C-37.55183255 37.77780487 -32.42610305 32.6402466 -25 29 C-24.34 28.67 -23.68 28.34 -23 28 C-20.62832572 27.84923342 -18.25129249 27.77834544 -15.875 27.75 C-14.59367187 27.72421875 -13.31234375 27.6984375 -11.9921875 27.671875 C-8 28 -8 28 0 31 C0 20.77 0 10.54 0 0 Z " fill="#202020" transform="translate(1452,797)"/>
<path d="M0 0 C48.20941176 0 48.20941176 0 57 8 C63.00183945 16.17243934 64.83666418 22.92311822 64 33 C62.27926695 41.12697568 57.82225639 46.40585223 51 51 C44.51917745 54.71544539 38.3919731 54.34874936 31.0625 54.1875 C27.081875 54.125625 23.10125 54.06375 19 54 C19 64.23 19 74.46 19 85 C12.73 85 6.46 85 0 85 C0 56.95 0 28.9 0 0 Z " fill="#202020" transform="translate(1094,799)"/>
<path d="M0 0 C1.06637695 -0.00193359 1.06637695 -0.00193359 2.15429688 -0.00390625 C7.63700501 0.10726387 10.8819504 0.98056032 15.125 4.375 C15.455 3.385 15.785 2.395 16.125 1.375 C22.065 1.375 28.005 1.375 34.125 1.375 C34.125 20.515 34.125 39.655 34.125 59.375 C28.185 59.375 22.245 59.375 16.125 59.375 C15.795 58.385 15.465 57.395 15.125 56.375 C14.3825 56.849375 13.64 57.32375 12.875 57.8125 C6.4024471 61.49008688 -1.44380108 61.31456653 -8.6015625 59.796875 C-16.38632827 57.14571638 -21.06237623 52.01503469 -25.2578125 45.09375 C-29.11903925 36.99327431 -29.47665773 27.55470066 -26.83984375 19.02734375 C-23.34117404 11.31857567 -18.17409391 5.12871718 -10.58984375 1.1875 C-7.05347567 0.12913373 -3.66045127 -0.00681014 0 0 Z " fill="#202020" transform="translate(751.875,824.625)"/>
<path d="M0 0 C7.4376129 4.9778381 13.35055564 11.73300162 15.6875 20.5 C16.90876924 29.69099532 15.18251373 37.88266595 10.28515625 45.75390625 C5.36719692 52.09073893 -1.44251728 56.53864266 -9.42333984 57.84570312 C-19.77322543 58.91739021 -28.71410169 57.80369232 -37.3125 51.5 C-44.08908717 45.83432876 -47.59687341 38.39578723 -48.65625 29.66796875 C-48.95912698 20.64475859 -47.06039353 14.19988766 -41.25 7.25 C-30.67555952 -3.56017642 -13.99978318 -7.07745271 0 0 Z " fill="#212121" transform="translate(642.3125,827.5)"/>
<path d="M0 0 C6.14662757 4.59286957 11.09063932 10.11702168 12.45703125 17.8359375 C13.56120509 28.33685605 12.99437207 37.02999176 6.45703125 45.8359375 C3.69825917 48.68107998 0.86239439 50.82099945 -2.54296875 52.8359375 C-3.41308594 53.37347656 -3.41308594 53.37347656 -4.30078125 53.921875 C-11.9790769 57.67494328 -22.98757799 57.18265996 -31.03125 54.8046875 C-39.09894557 51.11425497 -45.71337461 45.32897116 -49.54296875 37.2109375 C-51.92823289 29.36467388 -51.96816387 19.88526603 -48.54296875 12.3984375 C-44.54447521 5.64817172 -38.93874418 -0.65670635 -31.48046875 -3.53125 C-20.81824813 -5.82816455 -9.52291326 -5.67379168 0 0 Z " fill="#202020" transform="translate(924.54296875,829.1640625)"/>
<path d="M0 0 C5.55176793 3.35965355 9.57257986 8.25486734 11.5 14.4375 C11.77225479 17.73743724 11.73265442 21.02286322 11.6953125 24.33203125 C11.6924826 25.27938644 11.68965271 26.22674164 11.68673706 27.20280457 C11.67557187 30.21866666 11.65047389 33.23422816 11.625 36.25 C11.61496547 38.29882383 11.60584045 40.34765232 11.59765625 42.39648438 C11.57734892 47.41036429 11.53819308 52.42359698 11.5 57.4375 C5.23 57.4375 -1.04 57.4375 -7.5 57.4375 C-7.56058594 54.72917969 -7.62117188 52.02085937 -7.68359375 49.23046875 C-7.74539098 46.60926543 -7.80877544 43.98810497 -7.87231445 41.36694336 C-7.91564287 39.54439096 -7.95731947 37.72179852 -7.99731445 35.89916992 C-8.05506762 33.28031339 -8.11874756 30.66165805 -8.18359375 28.04296875 C-8.20030624 27.22724899 -8.21701874 26.41152924 -8.23423767 25.5710907 C-8.32013245 22.29570456 -8.45752134 19.56493599 -9.5 16.4375 C-13.00965619 14.95264546 -16.76689704 15.04454179 -20.5 15.4375 C-23.16070468 17.41138345 -25.14043422 19.00349278 -25.97183228 22.31924438 C-26.17416479 24.56524397 -26.21834979 26.76447588 -26.20703125 29.01953125 C-26.22215256 29.83371017 -26.23727386 30.6478891 -26.25285339 31.48674011 C-26.29567437 34.07477636 -26.30456247 36.66164505 -26.3125 39.25 C-26.33564883 41.00979654 -26.36101498 42.76956541 -26.38867188 44.52929688 C-26.45562667 48.83266404 -26.47663949 53.13279472 -26.5 57.4375 C-32.77 57.4375 -39.04 57.4375 -45.5 57.4375 C-45.5 38.2975 -45.5 19.1575 -45.5 -0.5625 C-39.23 -0.5625 -32.96 -0.5625 -26.5 -0.5625 C-26.5 0.4275 -26.5 1.4175 -26.5 2.4375 C-25.46875 1.7775 -24.4375 1.1175 -23.375 0.4375 C-16.41168207 -3.03176872 -7.13179162 -3.16816128 0 0 Z " fill="#212121" transform="translate(506.5,826.5625)"/>
<path d="M0 0 C5.19093324 3.13015502 9.10649468 7.89880357 11.5 13.4375 C11.74050903 15.58892822 11.74050903 15.58892822 11.72705078 17.93066406 C11.72689972 18.81127502 11.72674866 19.69188599 11.72659302 20.59918213 C11.71627045 21.54098328 11.70594788 22.48278442 11.6953125 23.453125 C11.6924826 24.42409119 11.68965271 25.39505737 11.68673706 26.39544678 C11.67555292 29.49292385 11.65045142 32.5901105 11.625 35.6875 C11.61496792 37.78905832 11.60584247 39.89062118 11.59765625 41.9921875 C11.57561934 47.14073669 11.54110145 52.28906913 11.5 57.4375 C5.56 57.4375 -0.38 57.4375 -6.5 57.4375 C-6.51417969 54.82457031 -6.52835938 52.21164062 -6.54296875 49.51953125 C-6.57360791 46.98090814 -6.61269156 44.44254524 -6.65258789 41.90405273 C-6.67574364 40.14373009 -6.69015794 38.38326939 -6.69555664 36.62280273 C-6.70486442 34.08750621 -6.74589048 31.55437372 -6.79296875 29.01953125 C-6.7890361 28.23600784 -6.78510345 27.45248444 -6.78105164 26.6452179 C-6.89344569 22.40884672 -7.15428296 20.86617795 -9.9152832 17.44262695 C-12.42089738 15.49886487 -13.40079714 14.75001607 -16.5 14.8125 C-17.139375 14.79960938 -17.77875 14.78671875 -18.4375 14.7734375 C-21.80834729 15.85874818 -23.29296754 17.70085114 -25.5 20.4375 C-26.22695979 23.29945428 -26.22179798 26.07747321 -26.20703125 29.01953125 C-26.22215256 29.83371017 -26.23727386 30.6478891 -26.25285339 31.48674011 C-26.29567437 34.07477636 -26.30456247 36.66164505 -26.3125 39.25 C-26.33564883 41.00979654 -26.36101498 42.76956541 -26.38867188 44.52929688 C-26.45562667 48.83266404 -26.47663949 53.13279472 -26.5 57.4375 C-32.44 57.4375 -38.38 57.4375 -44.5 57.4375 C-44.5 38.2975 -44.5 19.1575 -44.5 -0.5625 C-38.56 -0.5625 -32.62 -0.5625 -26.5 -0.5625 C-26.17 0.4275 -25.84 1.4175 -25.5 2.4375 C-24.63375 1.7775 -23.7675 1.1175 -22.875 0.4375 C-16.31503101 -3.30341918 -6.8231602 -3.03689789 0 0 Z " fill="#1E1E1E" transform="translate(991.5,826.5625)"/>
<path d="M0 0 C5.27757691 3.44658084 9.56631105 8.1672112 12.0625 14 C12.30300903 16.15142822 12.30300903 16.15142822 12.28955078 18.49316406 C12.28939972 19.37377502 12.28924866 20.25438599 12.28909302 21.16168213 C12.27877045 22.10348328 12.26844788 23.04528442 12.2578125 24.015625 C12.2549826 24.98659119 12.25215271 25.95755737 12.24923706 26.95794678 C12.23805292 30.05542385 12.21295142 33.1526105 12.1875 36.25 C12.17746792 38.35155832 12.16834247 40.45312118 12.16015625 42.5546875 C12.13811934 47.70323669 12.10360145 52.85156913 12.0625 58 C6.1225 58 0.1825 58 -5.9375 58 C-5.95167969 55.38707031 -5.96585938 52.77414062 -5.98046875 50.08203125 C-6.01110791 47.54340814 -6.05019156 45.00504524 -6.09008789 42.46655273 C-6.11324364 40.70623009 -6.12765794 38.94576939 -6.13305664 37.18530273 C-6.14236442 34.65000621 -6.18339048 32.11687372 -6.23046875 29.58203125 C-6.2265361 28.79850784 -6.22260345 28.01498444 -6.21855164 27.2077179 C-6.33094569 22.97134672 -6.59178296 21.42867795 -9.3527832 18.00512695 C-11.85839738 16.06136487 -12.83829714 15.31251607 -15.9375 15.375 C-16.576875 15.36210938 -17.21625 15.34921875 -17.875 15.3359375 C-21.24584729 16.42124818 -22.73046754 18.26335114 -24.9375 21 C-25.66445979 23.86195428 -25.65929798 26.63997321 -25.64453125 29.58203125 C-25.65965256 30.39621017 -25.67477386 31.2103891 -25.69035339 32.04924011 C-25.73317437 34.63727636 -25.74206247 37.22414505 -25.75 39.8125 C-25.77314883 41.57229654 -25.79851498 43.33206541 -25.82617188 45.09179688 C-25.89312667 49.39516404 -25.91413949 53.69529472 -25.9375 58 C-31.8775 58 -37.8175 58 -43.9375 58 C-43.9375 38.86 -43.9375 19.72 -43.9375 0 C-37.9975 0 -32.0575 0 -25.9375 0 C-25.6075 0.99 -25.2775 1.98 -24.9375 3 C-24.07125 2.34 -23.205 1.68 -22.3125 1 C-16.03798826 -2.59824041 -6.75229774 -2.34263391 0 0 Z " fill="#1E1E1E" transform="translate(573.9375,826)"/>
<path d="M0 0 C6.6 0 13.2 0 20 0 C20 22.11 20 44.22 20 67 C32.21 67 44.42 67 57 67 C57 72.61 57 78.22 57 84 C38.19 84 19.38 84 0 84 C0 56.28 0 28.56 0 0 Z " fill="#262626" transform="translate(1303,800)"/>
<path d="M0 0 C3.02826116 2.04145508 4.61964799 3.27300646 5.79296875 6.79296875 C2.49296875 10.09296875 -0.80703125 13.39296875 -4.20703125 16.79296875 C-5.71265625 15.96796875 -7.21828125 15.14296875 -8.76953125 14.29296875 C-13.27650183 12.01704477 -16.22059813 11.25096515 -21.20703125 11.79296875 C-21.53703125 13.11296875 -21.86703125 14.43296875 -22.20703125 15.79296875 C-19.04984367 17.89776047 -16.53168191 18.65275484 -12.89453125 19.66796875 C-5.42568551 21.91692119 -0.76466704 24.20971705 3.79296875 30.79296875 C5.46333844 35.80407783 5.77871181 41.01365417 3.9921875 46.05078125 C1.52765642 50.50556939 -1.65686256 53.67977559 -6.21875 55.94921875 C-15.35397556 58.52857655 -27.75434147 58.37150905 -36.20703125 53.79296875 C-39.30320433 51.91519711 -42.28335232 49.92870584 -45.20703125 47.79296875 C-44.65718353 43.91785148 -42.93147794 42.19720369 -40.14453125 39.54296875 C-39.41105469 38.8365625 -38.67757812 38.13015625 -37.921875 37.40234375 C-37.35597656 36.87125 -36.79007813 36.34015625 -36.20703125 35.79296875 C-33.95457102 36.87748664 -31.91987284 37.98964607 -29.8515625 39.40625 C-26.6369463 41.09190547 -24.49876522 41.09928965 -20.89453125 40.98046875 C-19.82589844 40.95339844 -18.75726562 40.92632813 -17.65625 40.8984375 C-16.44388672 40.84623047 -16.44388672 40.84623047 -15.20703125 40.79296875 C-14.87703125 39.47296875 -14.54703125 38.15296875 -14.20703125 36.79296875 C-15.36460938 36.40625 -16.5221875 36.01953125 -17.71484375 35.62109375 C-19.25406171 35.09550713 -20.79311561 34.56943989 -22.33203125 34.04296875 C-23.47285156 33.66398438 -23.47285156 33.66398438 -24.63671875 33.27734375 C-30.46989219 31.26590463 -35.21303315 28.83944049 -39.58203125 24.35546875 C-42.09605596 18.84395303 -42.26621256 13.7345406 -41.20703125 7.79296875 C-38.36455449 2.18746333 -33.52084423 -1.3695178 -27.71875 -3.5859375 C-18.59652099 -5.84166753 -8.25048533 -4.51221233 0 0 Z " fill="#222222" transform="translate(1055.20703125,828.20703125)"/>
<path d="M0 0 C6.27 0 12.54 0 19 0 C19 7.92 19 15.84 19 24 C23.29 24 27.58 24 32 24 C32 29.28 32 34.56 32 40 C27.71 40 23.42 40 19 40 C19 53.86 19 67.72 19 82 C12.73 82 6.46 82 0 82 C0 68.14 0 54.28 0 40 C-4.29 40 -8.58 40 -13 40 C-13 34.72 -13 29.44 -13 24 C-8.71 24 -4.42 24 0 24 C0 16.08 0 8.16 0 0 Z " fill="#232323" transform="translate(1374,802)"/>
<path d="M0 0 C6.27 0 12.54 0 19 0 C19 7.92 19 15.84 19 24 C23.29 24 27.58 24 32 24 C32 29.28 32 34.56 32 40 C27.71 40 23.42 40 19 40 C19 53.86 19 67.72 19 82 C12.73 82 6.46 82 0 82 C0 68.14 0 54.28 0 40 C-4.29 40 -8.58 40 -13 40 C-13 34.72 -13 29.44 -13 24 C-8.71 24 -4.42 24 0 24 C0 16.08 0 8.16 0 0 Z " fill="#232323" transform="translate(807,802)"/>
<path d="M0 0 C7.95412299 5.59004928 12.92114642 12.32182619 15.5234375 21.7734375 C15.65817873 24.44131392 15.71541611 26.98990191 15.6484375 29.6484375 C15.63941406 30.33679688 15.63039063 31.02515625 15.62109375 31.734375 C15.59776263 33.41421588 15.56190076 35.09387496 15.5234375 36.7734375 C14.2109375 36.3359375 12.8984375 35.8984375 11.5859375 35.4609375 C10.76480469 35.18894531 9.94367188 34.91695312 9.09765625 34.63671875 C7.45014743 34.08421579 5.80643718 33.52016873 4.16796875 32.94140625 C3.41902344 32.67972656 2.67007812 32.41804687 1.8984375 32.1484375 C1.22554687 31.90867187 0.55265625 31.66890625 -0.140625 31.421875 C-15.69342077 27.10454373 -33.38078266 28.98484187 -47.734375 36.00390625 C-49.4765625 36.7734375 -49.4765625 36.7734375 -51.4765625 36.7734375 C-51.96152154 24.1465409 -51.08645907 15.35574592 -42.4765625 5.7734375 C-31.08730731 -6.05281549 -14.2205335 -8.29855791 0 0 Z " fill="#FBFBFB" transform="translate(1119.4765625,654.2265625)"/>
<path d="M0 0 C9.9670387 5.49045011 14.95570606 13.75383694 18.49609375 24.375 C18.56579427 26.76990986 18.58057378 29.16667691 18.55859375 31.5625 C18.54957031 32.83480469 18.54054688 34.10710938 18.53125 35.41796875 C18.51964844 36.39378906 18.50804687 37.36960937 18.49609375 38.375 C17.29984375 37.9625 16.10359375 37.55 14.87109375 37.125 C14.03835938 36.85558594 13.205625 36.58617187 12.34765625 36.30859375 C10.3932722 35.66873377 8.45062257 34.99220937 6.51953125 34.28515625 C-8.77325775 29.15714466 -25.42077499 29.74471755 -40.50390625 35.375 C-42.5053321 36.3721432 -44.50563435 37.37155123 -46.50390625 38.375 C-47.16390625 38.375 -47.82390625 38.375 -48.50390625 38.375 C-49.08390487 26.29169551 -48.3822034 17.7476751 -40.50390625 8.125 C-29.4671474 -3.2712624 -14.75234761 -6.31304029 0 0 Z " fill="#FCFCFC" transform="translate(664.50390625,652.625)"/>
<path d="M0 0 C6.0625754 4.99896568 11.42463953 12.03339803 12.375 20 C12.44274144 22.61481958 12.47000258 25.19979256 12.4375 27.8125 C12.43298828 28.50537109 12.42847656 29.19824219 12.42382812 29.91210938 C12.41213156 31.60811068 12.39419924 33.30406703 12.375 35 C7.6089942 33.43932556 2.93194489 31.70682736 -1.74609375 29.90234375 C-15.84059804 25.4846633 -35.19957312 26.55256281 -48.375 33.1875 C-49.4475 33.785625 -50.52 34.38375 -51.625 35 C-52.285 35 -52.945 35 -53.625 35 C-54.40001952 17.45441919 -54.40001952 17.45441919 -49.625 10 C-49.22410156 9.31679688 -48.82320312 8.63359375 -48.41015625 7.9296875 C-44.23672113 1.56671106 -37.59305885 -3.61151182 -30.20703125 -5.67578125 C-19.02349701 -7.0800677 -9.33824937 -6.54462183 0 0 Z " fill="#FCFCFC" transform="translate(1423.625,656)"/>
<path d="M0 0 C2.26835785 2.02007988 3.83124923 3.87324207 5.48046875 6.41015625 C5.95742188 7.12816406 6.434375 7.84617187 6.92578125 8.5859375 C10.45551369 14.78707947 11.79310137 19.52502932 11.54296875 26.53515625 C11.52266602 27.6324707 11.52266602 27.6324707 11.50195312 28.75195312 C11.46700749 30.53418047 11.4132168 32.31602198 11.35546875 34.09765625 C10.50082031 33.81019531 9.64617187 33.52273438 8.765625 33.2265625 C5.45084078 32.12922844 2.12757988 31.0705786 -1.20703125 30.03515625 C-2.30144531 29.69355469 -3.39585937 29.35195313 -4.5234375 29 C-21.10600835 24.2057899 -39.14214306 27.06085792 -54.64453125 34.09765625 C-55.34419834 23.16211882 -55.39383455 14.35466248 -48.64453125 5.09765625 C-35.72540595 -9.25692742 -15.82409829 -11.38306628 0 0 Z " fill="#FCFCFC" transform="translate(972.64453125,656.90234375)"/>
<path d="M0 0 C6.6 0 13.2 0 20 0 C22.98581795 7.3031493 25.68684656 14.66412183 28.25 22.125 C29.4875 25.71375 30.725 29.3025 32 33 C35.96 22.11 39.92 11.22 44 0 C50.6 0 57.2 0 64 0 C59.41527148 12.2544193 54.29675451 24.26973058 49.1875 36.3125 C48.29472764 38.42114173 47.40214796 40.52986505 46.50976562 42.63867188 C44.34206382 47.76005785 42.17175803 52.88033285 40 58 C34.72 58 29.44 58 24 58 C21.70581545 52.61521616 19.41300017 47.2298519 17.12133789 41.84399414 C16.345002 40.01994901 15.5683213 38.19605057 14.79125977 36.37231445 C10.80352727 27.01261393 6.82968896 17.64763095 2.94140625 8.24609375 C2.64201645 7.52494888 2.34262665 6.80380402 2.03416443 6.06080627 C0 1.11960736 0 1.11960736 0 0 Z " fill="#212121" transform="translate(1161,826)"/>
<path d="M0 0 C6.6 0 13.2 0 20 0 C29.60075567 25.31108312 29.60075567 25.31108312 31 33 C31.66 33 32.32 33 33 33 C33.20302734 32.15695312 33.20302734 32.15695312 33.41015625 31.296875 C35.13799224 24.5510722 37.32079079 18.00352859 39.625 11.4375 C39.93832275 10.54450195 40.25164551 9.65150391 40.57446289 8.73144531 C42.85547773 2.28904455 42.85547773 2.28904455 44 0 C50.6 0 57.2 0 64 0 C58.29156958 14.5623225 52.21505606 28.9431281 46.01733398 43.30200195 C45.69417206 44.05161194 45.37101013 44.80122192 45.03805542 45.57354736 C44.42518409 46.99451784 43.81116542 48.41499418 43.1958313 49.8348999 C42.02997744 52.53697237 40.93120433 55.20638701 40 58 C34.72 58 29.44 58 24 58 C21.38464644 51.95388862 18.77034939 45.90732189 16.15698242 39.86035156 C15.2698949 37.80814619 14.38253103 35.75606025 13.49487305 33.70410156 C10.6552227 27.13950752 7.8216569 20.57235003 5 14 C4.69801697 13.29721924 4.39603394 12.59443848 4.0848999 11.87036133 C3.34774641 10.14983899 2.61686572 8.42663241 1.88671875 6.703125 C1.51119873 5.81786133 1.13567871 4.93259766 0.7487793 4.02050781 C0 2 0 2 0 0 Z " fill="#212121" transform="translate(659,826)"/>
<path d="M0 0 C5.94 0 11.88 0 18 0 C18 7.92 18 15.84 18 24 C22.29 24 26.58 24 31 24 C31 28.95 31 33.9 31 39 C26.71 39 22.42 39 18 39 C18 53.19 18 67.38 18 82 C12.06 82 6.12 82 0 82 C0 67.81 0 53.62 0 39 C-4.29 39 -8.58 39 -13 39 C-13 34.05 -13 29.1 -13 24 C-8.71 24 -4.42 24 0 24 C0 16.08 0 8.16 0 0 Z " fill="#1E1E1E" transform="translate(1240,802)"/>
<path d="M0 0 C6.27 0 12.54 0 19 0 C19 28.05 19 56.1 19 85 C12.73 85 6.46 85 0 85 C0 56.95 0 28.9 0 0 Z " fill="#222222" transform="translate(428,799)"/>
<path d="M0 0 C5.94 0 11.88 0 18 0 C18 19.14 18 38.28 18 58 C12.06 58 6.12 58 0 58 C0 38.86 0 19.72 0 0 Z " fill="#1E1E1E" transform="translate(847,826)"/>
<path d="M0 0 C3.99851442 2.07517837 6.50864767 4.05689824 8.1015625 8.2734375 C9.0778233 14.75336859 7.96130529 19.01989871 4.1015625 24.2734375 C-0.46575747 27.22584824 -5.66007992 27.04286985 -10.8984375 26.2734375 C-14.8286901 23.38590498 -17.47028529 20.01162026 -18.234375 15.125 C-18.33006454 9.67069615 -17.64241935 6.52336285 -13.8984375 2.2734375 C-9.63256621 -1.18537706 -5.23539462 -2.00366954 0 0 Z " fill="#F9F9F9" transform="translate(630.8984375,841.7265625)"/>
<path d="M0 0 C3.5199252 2.97238128 6.27953379 5.65578465 7.1953125 10.328125 C7.48730861 15.42832368 6.14012738 18.40033396 2.8125 22.375 C-1.15036931 25.98542323 -4.3749968 25.87550009 -9.5546875 25.73046875 C-13.13104613 25.24760727 -14.84666419 24.09338997 -17.1875 21.375 C-20.0422148 16.66472057 -19.9533289 11.72033098 -19.1875 6.375 C-17.57447114 3.11681023 -15.23861128 1.14581494 -12.3125 -1 C-7.68795416 -2.36016054 -4.29712534 -2.19069135 0 0 Z " fill="#F9F9F9" transform="translate(912.1875,842.625)"/>
<path d="M0 0 C2.68125 -0.0825 5.3625 -0.165 8.125 -0.25 C8.95789551 -0.28641602 9.79079102 -0.32283203 10.64892578 -0.36035156 C16.86787793 -0.45235229 20.2982362 1.47835379 24.875 5.75 C26.56015122 9.12030243 26.53795102 12.35065658 26 16 C24.34654533 19.720273 22.5635849 22.0400283 19 24 C15.74048561 24.37019311 12.52495459 24.28110958 9.25 24.1875 C4.67125 24.0946875 4.67125 24.0946875 0 24 C0 16.08 0 8.16 0 0 Z " fill="#FBFBFB" transform="translate(1113,814)"/>
<path d="M0 0 C3.81422234 2.05381203 7.00010435 4.10546637 9 8 C10.10280384 12.47105742 10.36739202 15.9182346 8.875 20.3125 C6.7132392 23.41102381 5.32876585 25.15855506 2 27 C-2.59013599 27.67301829 -6.59385708 27.53852282 -10.9375 25.875 C-14.83808953 22.32900952 -16.17618585 18.67402015 -16.4375 13.5 C-16.27137833 9.01471493 -15.0067292 6.41304396 -12 3 C-8.07324125 -0.18385844 -4.98824428 -0.6125914 0 0 Z " fill="#FAFAFA" transform="translate(759,841)"/>
<path d="M0 0 C3.91804927 2.10971884 6.66430134 4.21711053 9 8 C9.88450169 13.27513621 9.61026039 17.75768421 7.25 22.5625 C4.64110899 25.3887986 2.66741276 26.73927728 -1.1484375 27.3359375 C-6.57714448 27.43117797 -9.80409377 26.78654952 -14 23 C-16.63715735 18.80452239 -16.68742642 13.81198492 -16 9 C-12.44295878 1.88591755 -7.97117847 -0.97891665 0 0 Z " fill="#FBFBFB" transform="translate(1444,841)"/>
<path d="M0 0 C3.0625 2 3.0625 2 5 5 C5.94884067 9.67642901 5.66524378 12.93560995 3.125 17 C-0.14774275 20.08022847 -2.46392693 20.34233668 -6.96484375 20.28515625 C-10.93766937 19.72850314 -13.05380527 17.24725669 -15.375 14.1875 C-16.33620615 10.82327848 -15.82844946 8.37297281 -15 5 C-10.70000877 -1.38063215 -7.20473874 -1.76391879 0 0 Z " fill="#F7FBFE" transform="translate(124,651)"/>
<path d="M0 0 C3.4185354 0.79889686 5.05365451 2.80995577 7.15625 5.50390625 C7.48625 5.83390625 7.81625 6.16390625 8.15625 6.50390625 C8.53814241 11.46850763 8.30938973 14.56248159 5.15625 18.50390625 C1.73530881 21.06961214 -1.69148484 20.94098679 -5.84375 20.50390625 C-8.59704021 18.7082822 -10.37002461 17.45135703 -11.84375 14.50390625 C-12.4906676 9.79989115 -12.48208677 6.51289018 -9.90625 2.44140625 C-6.33791328 0.1838871 -4.15607312 -0.21473044 0 0 Z " fill="#242424" transform="translate(857.84375,797.49609375)"/>
</svg>
